<svg width="356" height="80" viewBox="0 0 356 80" fill="none" xmlns="http://www.w3.org/2000/svg">
<path d="M10.8666 5.6C13.5866 3.84 16.4932 2.48 19.5866 1.52C22.7332 0.506663 25.7999 -4.76837e-06 28.7866 -4.76837e-06C29.1599 -4.76837e-06 29.5599 0.0266631 29.9866 0.079999C30.4666 0.079999 31.1332 0.106665 31.9866 0.159998L32.7066 49.36L49.5066 0.399995H55.1066L32.8666 60H20.7066V5.36C16.5466 6.64 13.3999 8.77333 11.2666 11.76C9.18656 14.7467 8.14656 18.5333 8.14656 23.12C8.14656 24.1333 8.1999 25.0133 8.30656 25.76C8.46656 26.5067 8.70656 27.2267 9.02656 27.92C9.13323 28.1333 9.18656 28.2933 9.18656 28.4C9.2399 28.4533 9.26656 28.5067 9.26656 28.56C6.2799 28.56 4.09323 27.9467 2.70656 26.72C1.37323 25.44 0.706563 23.4667 0.706563 20.8C0.706563 18.1333 1.58656 15.4667 3.34656 12.8C5.1599 10.1333 7.66656 7.73333 10.8666 5.6ZM69.2053 9.36C69.2053 11.12 68.5653 12.6133 67.2853 13.84C66.0586 15.0667 64.5653 15.68 62.8053 15.68C61.0453 15.68 59.552 15.0667 58.3253 13.84C57.0986 12.6133 56.4853 11.12 56.4853 9.36C56.4853 7.6 57.0986 6.10667 58.3253 4.88C59.552 3.6 61.0453 2.96 62.8053 2.96C64.5653 2.96 66.0586 3.6 67.2853 4.88C68.5653 6.10667 69.2053 7.6 69.2053 9.36ZM48.8053 50.88C48.8053 50.1867 48.8586 49.4133 48.9653 48.56C49.072 47.6533 49.232 46.6933 49.4453 45.68L54.8853 20H66.4053L60.6453 47.2C60.5386 47.68 60.4586 48.1333 60.4053 48.56C60.352 48.9333 60.3253 49.3333 60.3253 49.76C60.3253 50.8267 60.5653 51.6 61.0453 52.08C61.5786 52.5067 62.432 52.72 63.6053 52.72C65.0986 52.72 66.512 52.08 67.8453 50.8C69.1786 49.4667 70.1653 47.76 70.8053 45.68H74.1653C72.4586 50.5333 70.1653 54.2133 67.2853 56.72C64.4053 59.2267 61.0986 60.48 57.3653 60.48C54.6986 60.48 52.592 59.6533 51.0453 58C49.552 56.2933 48.8053 53.92 48.8053 50.88ZM89.5884 51.44C89.5884 50.48 89.6951 49.28 89.9084 47.84C90.1751 46.4 90.6818 44.1067 91.4284 40.96C92.1751 37.92 92.6551 35.7333 92.8684 34.4C93.0818 33.0667 93.1884 31.9467 93.1884 31.04C93.1884 29.7067 92.9484 28.6933 92.4684 28C91.9884 27.3067 91.2684 26.96 90.3084 26.96C89.0284 26.96 87.8284 27.6267 86.7084 28.96C85.6418 30.24 84.7618 32.0267 84.0684 34.32L78.6284 60H67.1084L75.5884 20H87.1084L86.2284 24.16C87.5618 22.6667 89.0018 21.5467 90.5484 20.8C92.0951 20.0533 93.7751 19.68 95.5884 19.68C98.4151 19.68 100.602 20.4533 102.148 22C103.695 23.5467 104.468 25.7867 104.468 28.72C104.468 29.9467 104.308 31.4133 103.988 33.12C103.722 34.7733 103.162 37.3333 102.308 40.8C101.615 43.52 101.162 45.44 100.948 46.56C100.735 47.68 100.628 48.6133 100.628 49.36C100.628 50.48 100.895 51.3333 101.428 51.92C101.962 52.4533 102.762 52.72 103.828 52.72C105.162 52.72 106.308 52.2667 107.268 51.36C108.228 50.4533 109.322 48.56 110.548 45.68H113.908C112.202 50.64 110.122 54.3467 107.668 56.8C105.268 59.2533 102.388 60.48 99.0284 60.48C96.0418 60.48 93.7218 59.68 92.0684 58.08C90.4151 56.4267 89.5884 54.2133 89.5884 51.44ZM130.299 9.36C130.299 11.12 129.659 12.6133 128.379 13.84C127.152 15.0667 125.659 15.68 123.899 15.68C122.139 15.68 120.646 15.0667 119.419 13.84C118.192 12.6133 117.579 11.12 117.579 9.36C117.579 7.6 118.192 6.10667 119.419 4.88C120.646 3.6 122.139 2.96 123.899 2.96C125.659 2.96 127.152 3.6 128.379 4.88C129.659 6.10667 130.299 7.6 130.299 9.36ZM109.899 50.88C109.899 50.1867 109.952 49.4133 110.059 48.56C110.166 47.6533 110.326 46.6933 110.539 45.68L115.979 20H127.499L121.739 47.2C121.632 47.68 121.552 48.1333 121.499 48.56C121.446 48.9333 121.419 49.3333 121.419 49.76C121.419 50.8267 121.659 51.6 122.139 52.08C122.672 52.5067 123.526 52.72 124.699 52.72C126.192 52.72 127.606 52.08 128.939 50.8C130.272 49.4667 131.259 47.76 131.899 45.68H135.259C133.552 50.5333 131.259 54.2133 128.379 56.72C125.499 59.2267 122.192 60.48 118.459 60.48C115.792 60.48 113.686 59.6533 112.139 58C110.646 56.2933 109.899 53.92 109.899 50.88Z" fill="white"/>
<path d="M142.507 6.4C145.227 4.64 148.134 3.28 151.227 2.32C154.374 1.30667 157.441 0.799999 160.427 0.799999C160.801 0.799999 161.201 0.826666 161.627 0.879998C162.107 0.879998 162.774 0.906665 163.627 0.959997L151.307 58.4C152.534 58.6667 153.841 59.12 155.227 59.76C156.667 60.3467 158.827 61.4133 161.707 62.96C166.027 65.3067 169.334 66.8533 171.627 67.6C173.921 68.3467 176.107 68.72 178.187 68.72C179.414 68.72 180.561 68.6133 181.627 68.4C182.747 68.1867 183.841 67.8667 184.907 67.44C184.481 71.28 183.521 74.32 182.027 76.56C180.534 78.8533 178.721 80 176.587 80C174.667 80 172.614 79.4667 170.427 78.4C168.294 77.3867 165.041 75.1467 160.667 71.68C155.654 67.6267 151.761 64.96 148.987 63.68C146.214 62.4533 143.521 61.84 140.907 61.84C140.427 61.84 140.054 61.84 139.787 61.84C139.521 61.84 139.281 61.8667 139.067 61.92L150.987 6.48C147.361 7.97333 144.587 10.2133 142.667 13.2C140.747 16.1867 139.787 19.76 139.787 23.92C139.787 24.9333 139.841 25.8133 139.947 26.56C140.107 27.3067 140.347 28.0267 140.667 28.72C140.774 28.9333 140.827 29.0933 140.827 29.2C140.881 29.2533 140.907 29.3067 140.907 29.36C137.921 29.36 135.734 28.7467 134.347 27.52C133.014 26.24 132.347 24.2667 132.347 21.6C132.347 18.9333 133.227 16.2667 134.987 13.6C136.801 10.9333 139.307 8.53333 142.507 6.4ZM184.18 23.68V24.24L185.06 20H196.58L190.82 47.2C190.713 47.68 190.633 48.1333 190.58 48.56C190.526 48.9333 190.5 49.3333 190.5 49.76C190.5 50.9333 190.766 51.8133 191.3 52.4C191.833 52.9333 192.66 53.2 193.78 53.2C195.166 53.2 196.42 52.56 197.54 51.28C198.66 49.9467 199.566 48.08 200.26 45.68H203.62C201.913 50.5867 199.7 54.2933 196.98 56.8C194.26 59.2533 191.113 60.48 187.54 60.48C185.246 60.48 183.406 59.84 182.02 58.56C180.686 57.28 179.913 55.4667 179.7 53.12C178.046 55.5733 176.206 57.4133 174.18 58.64C172.206 59.8667 170.073 60.48 167.78 60.48C164.473 60.48 161.86 59.36 159.94 57.12C158.073 54.88 157.14 51.7067 157.14 47.6C157.14 44.6133 157.593 41.4933 158.5 38.24C159.406 34.9867 160.66 32.0267 162.26 29.36C164.233 26.2133 166.526 23.8133 169.14 22.16C171.753 20.4533 174.606 19.6 177.7 19.6C179.78 19.6 181.38 19.9733 182.5 20.72C183.62 21.4133 184.18 22.4 184.18 23.68ZM183.46 27.6C183.46 26.8 183.166 26.1067 182.58 25.52C181.993 24.88 181.193 24.56 180.18 24.56C177.246 24.56 174.633 27.0133 172.34 31.92C170.1 36.8267 168.98 41.68 168.98 46.48C168.98 48.56 169.273 50.1333 169.86 51.2C170.446 52.2133 171.486 52.72 172.98 52.72C174.366 52.72 175.7 52.0533 176.98 50.72C178.313 49.3867 179.193 47.7067 179.62 45.68L183.46 27.6ZM215.729 51.44C215.729 50.48 215.836 49.28 216.049 47.84C216.316 46.4 216.822 44.1067 217.569 40.96C218.316 37.92 218.796 35.7333 219.009 34.4C219.222 33.0667 219.329 31.9467 219.329 31.04C219.329 29.7067 219.089 28.6933 218.609 28C218.129 27.3067 217.409 26.96 216.449 26.96C215.169 26.96 213.969 27.6267 212.849 28.96C211.782 30.24 210.902 32.0267 210.209 34.32L204.769 60H193.249L201.729 20H213.249L212.369 24.16C213.702 22.6667 215.142 21.5467 216.689 20.8C218.236 20.0533 219.916 19.68 221.729 19.68C224.556 19.68 226.742 20.4533 228.289 22C229.836 23.5467 230.609 25.7867 230.609 28.72C230.609 29.9467 230.449 31.4133 230.129 33.12C229.862 34.7733 229.302 37.3333 228.449 40.8C227.756 43.52 227.302 45.44 227.089 46.56C226.876 47.68 226.769 48.6133 226.769 49.36C226.769 50.48 227.036 51.3333 227.569 51.92C228.102 52.4533 228.902 52.72 229.969 52.72C231.302 52.72 232.449 52.2667 233.409 51.36C234.369 50.4533 235.462 48.56 236.689 45.68H240.049C238.342 50.64 236.262 54.3467 233.809 56.8C231.409 59.2533 228.529 60.48 225.169 60.48C222.182 60.48 219.862 59.68 218.209 58.08C216.556 56.4267 215.729 54.2133 215.729 51.44ZM262.04 26.64C262.04 28.4533 261.64 29.8933 260.84 30.96C260.093 31.9733 259.08 32.48 257.8 32.48C257.373 32.48 256.92 32.4 256.44 32.24C255.96 32.08 255.48 31.84 255 31.52C255.32 30.6667 255.56 29.84 255.72 29.04C255.88 28.24 255.96 27.4933 255.96 26.8C255.96 25.7333 255.773 24.9333 255.4 24.4C255.026 23.8133 254.466 23.52 253.72 23.52C251.373 23.52 249.08 26.24 246.84 31.68C244.6 37.0667 243.48 42.1867 243.48 47.04C243.48 49.4933 243.88 51.2267 244.68 52.24C245.533 53.2533 247.053 53.76 249.24 53.76C251.746 53.76 254.04 53.2 256.12 52.08C258.253 50.9067 260.68 48.7733 263.4 45.68H266.12C263.026 50.6933 259.666 54.4267 256.04 56.88C252.413 59.28 248.44 60.48 244.12 60.48C240.013 60.48 236.893 59.4133 234.76 57.28C232.68 55.1467 231.64 51.9733 231.64 47.76C231.64 44.72 232.093 41.4933 233 38.08C233.96 34.6667 235.266 31.6267 236.92 28.96C238.893 25.76 241.24 23.36 243.96 21.76C246.733 20.1067 249.8 19.28 253.16 19.28C256.093 19.28 258.306 19.92 259.8 21.2C261.293 22.4267 262.04 24.24 262.04 26.64ZM279.448 51.44C279.448 50.48 279.554 49.28 279.768 47.84C280.034 46.4 280.541 44.1067 281.288 40.96C282.034 37.92 282.514 35.7333 282.728 34.4C282.941 33.0667 283.048 31.9467 283.048 31.04C283.048 29.7067 282.781 28.6933 282.248 28C281.768 27.3067 281.048 26.96 280.088 26.96C278.808 26.96 277.554 27.7333 276.328 29.28C275.154 30.7733 274.381 32.3467 274.008 34L268.488 60H256.968L268.568 5.6L280.408 4L276.088 24.16C277.421 22.6667 278.861 21.5467 280.408 20.8C281.954 20.0533 283.634 19.68 285.448 19.68C288.274 19.68 290.461 20.4533 292.008 22C293.554 23.5467 294.328 25.7867 294.328 28.72C294.328 29.9467 294.168 31.4133 293.848 33.12C293.581 34.7733 293.021 37.3333 292.168 40.8C291.474 43.52 291.021 45.44 290.808 46.56C290.594 47.68 290.488 48.6133 290.488 49.36C290.488 50.48 290.754 51.3333 291.288 51.92C291.821 52.4533 292.621 52.72 293.688 52.72C295.021 52.72 296.168 52.2667 297.128 51.36C298.088 50.4533 299.181 48.56 300.408 45.68H303.768C302.061 50.64 299.981 54.3467 297.528 56.8C295.128 59.2533 292.248 60.48 288.888 60.48C285.901 60.48 283.581 59.68 281.928 58.08C280.274 56.4267 279.448 54.2133 279.448 51.44ZM325.368 26.96C325.368 31.3867 323.554 35.2533 319.928 38.56C316.301 41.8133 311.981 43.5733 306.968 43.84C306.914 44.7467 306.861 45.44 306.808 45.92C306.808 46.3467 306.808 46.72 306.808 47.04C306.808 49.4933 307.208 51.2267 308.008 52.24C308.861 53.2533 310.381 53.76 312.568 53.76C315.074 53.76 317.368 53.2 319.448 52.08C321.581 50.9067 324.008 48.7733 326.728 45.68H329.448C326.354 50.6933 322.994 54.4267 319.368 56.88C315.741 59.28 311.768 60.48 307.448 60.48C303.341 60.48 300.221 59.4133 298.088 57.28C296.008 55.1467 294.968 51.9733 294.968 47.76C294.968 44.72 295.448 41.4933 296.408 38.08C297.368 34.6667 298.648 31.6267 300.248 28.96C302.221 25.76 304.568 23.36 307.288 21.76C310.061 20.1067 313.154 19.28 316.568 19.28C319.501 19.28 321.688 19.92 323.128 21.2C324.621 22.4267 325.368 24.3467 325.368 26.96ZM317.208 23.52C315.394 23.52 313.554 25.1467 311.688 28.4C309.874 31.6 308.514 35.4667 307.608 40C310.701 39.7867 313.394 38.3733 315.688 35.76C318.034 33.0933 319.208 30.1067 319.208 26.8C319.208 25.68 319.048 24.8533 318.728 24.32C318.408 23.7867 317.901 23.52 317.208 23.52ZM346.347 46.64C346.347 47.28 346.32 47.84 346.267 48.32C346.213 48.8 346.133 49.2533 346.027 49.68C347.093 49.04 348.133 48.3733 349.147 47.68C350.16 46.9867 351.04 46.32 351.787 45.68H355.147C353.493 47.6 351.653 49.3867 349.627 51.04C347.653 52.64 345.413 54.1867 342.907 55.68C341.467 57.2267 339.627 58.4267 337.387 59.28C335.147 60.08 332.8 60.48 330.347 60.48C326.773 60.48 323.92 59.52 321.787 57.6C319.707 55.6267 318.667 53.1733 318.667 50.24C318.667 48.5867 319.067 47.0933 319.867 45.76C320.667 44.3733 321.68 43.3867 322.907 42.8C324.72 39.5467 326.4 36.08 327.947 32.4C329.547 28.6667 331.147 24.24 332.747 19.12L344.587 17.52C344.747 21.52 344.933 25.1733 345.147 28.48C345.36 31.7867 345.627 35.3867 345.947 39.28C346.107 41.52 346.213 43.0933 346.267 44C346.32 44.9067 346.347 45.7867 346.347 46.64ZM333.227 27.76C332.533 29.9467 331.68 32.24 330.667 34.64C329.707 36.9867 328.4 39.7333 326.747 42.88C327.333 43.1467 327.787 43.52 328.107 44C328.427 44.48 328.587 45.04 328.587 45.68C328.587 46.6933 328.24 47.6 327.547 48.4C326.853 49.2 326.027 49.6 325.067 49.6C324.533 49.6 324.08 49.52 323.707 49.36C323.333 49.1467 323.067 48.88 322.907 48.56C322.907 50.5333 323.28 51.9733 324.027 52.88C324.827 53.7333 326.08 54.16 327.787 54.16C329.973 54.16 331.68 53.52 332.907 52.24C334.133 50.96 334.747 49.12 334.747 46.72C334.747 45.9733 334.72 45.2267 334.667 44.48C334.613 43.68 334.507 42.3733 334.347 40.56C334.08 38.0533 333.867 35.84 333.707 33.92C333.547 32 333.387 29.9467 333.227 27.76Z" fill="#15C7FF"/>
</svg>
